<svg width="74" height="65" viewBox="0 0 74 65" fill="none" xmlns="http://www.w3.org/2000/svg">
<g filter="url(#filter0_d_349_2654)">
<path d="M26.4063 43.3708C26.3897 43.3 26.3657 43.2303 26.3338 43.1629C26.3021 43.0964 26.2628 43.0323 26.2171 42.9725C26.1713 42.9116 26.118 42.8552 26.0597 42.8042C26.0012 42.7533 25.9365 42.7069 25.8666 42.667C25.7981 42.6271 25.7244 42.5928 25.6471 42.5652C25.5709 42.5376 25.4909 42.5153 25.4097 42.5021C25.2459 42.4732 25.077 42.4732 24.9145 42.5021C24.8333 42.5153 24.7533 42.5376 24.6758 42.5652C24.5996 42.5928 24.526 42.6271 24.4574 42.667C24.3877 42.7069 24.3229 42.7533 24.2645 42.8042C24.2062 42.8552 24.1527 42.9116 24.1071 42.9725C24.0601 43.0323 24.0221 43.0964 23.9904 43.1629C23.9586 43.2303 23.9332 43.3 23.9179 43.3708C23.9015 43.4417 23.8926 43.5148 23.8926 43.5867C23.8926 43.6587 23.9015 43.7317 23.9179 43.8025C23.9332 43.8733 23.9586 43.943 23.9904 44.0095C24.0221 44.0771 24.0601 44.1412 24.1071 44.201C24.1527 44.2618 24.2062 44.3183 24.2645 44.3692C24.3229 44.4202 24.3877 44.4666 24.4574 44.5064C24.526 44.5464 24.5996 44.5807 24.6758 44.6083C24.7533 44.6361 24.8333 44.6582 24.9145 44.6715C24.9958 44.6858 25.0796 44.6936 25.162 44.6936C25.2446 44.6936 25.3284 44.6858 25.4097 44.6715C25.4909 44.6582 25.5709 44.6361 25.6471 44.6083C25.7244 44.5807 25.7981 44.5463 25.8666 44.5064C25.9365 44.4666 26.0012 44.4202 26.0597 44.3692C26.118 44.3183 26.1713 44.2618 26.2171 44.201C26.2628 44.1412 26.3021 44.0771 26.3338 44.0095C26.3657 43.943 26.3897 43.8733 26.4063 43.8025C26.4227 43.7317 26.4316 43.6587 26.4316 43.5867C26.4316 43.5148 26.4227 43.4417 26.4063 43.3708Z" fill="#31C5A1"/>
<path d="M62.8975 43.713C62.8926 43.702 62.8874 43.691 62.8822 43.6801C61.7137 41.2966 58.9732 40.4156 55.7301 41.3812L46.8855 43.5135C46.3741 42.1635 45.0987 41.0147 43.2952 40.4312C43.284 40.4276 43.2728 40.4241 43.2616 40.4208L33.5394 37.544C32.7301 36.6322 30.1955 34.2988 25.4495 34.2988C22.1329 34.2988 19.1989 36.2824 17.5203 38.4446H5.76953C5.06838 38.4446 4.5 38.94 4.5 39.5513V53.5051C4.5 54.1163 5.06838 54.6118 5.76953 54.6118H13.3178C14.0189 54.6118 14.5873 54.1163 14.5873 53.5051V52.5495H18.1271C18.8283 52.5495 19.3967 52.0541 19.3967 51.4428V51.1242C21.4601 51.2811 22.1389 51.6224 24.034 52.5751C25.4914 53.3078 27.6941 54.4151 31.6609 55.97C31.6794 55.9772 31.6979 55.984 31.7166 55.9904C32.4779 56.2515 33.9663 56.6618 35.8011 56.6618C37.0783 56.6618 38.5236 56.4629 40.0072 55.8765L59.5568 49.7744C59.5916 49.7634 59.6259 49.7513 59.6595 49.7378C61.5278 48.9884 64.312 46.8763 62.8975 43.713ZM12.0482 52.3982H7.03906V40.658H12.0482V52.3982ZM16.8576 50.3359H14.5873V40.658H16.8576V50.3359ZM58.645 47.7076L39.104 53.8072C39.087 53.8124 39.0638 53.8204 39.0468 53.8264C39.0296 53.8325 39.0126 53.8389 38.9957 53.8457C36.2741 54.936 33.6873 54.2833 32.6734 53.9396C28.8417 52.4366 26.7966 51.4085 25.3024 50.6572C23.2249 49.6129 22.2239 49.1095 19.3967 48.9061V39.9918C20.6 38.2724 22.9337 36.5124 25.4497 36.5124C29.7642 36.5124 31.5925 38.9588 31.6643 39.0576C31.8193 39.2774 32.0577 39.443 32.3379 39.5259L42.4275 42.5114C44.0388 43.0385 44.8905 44.2417 44.4991 45.4413C44.3183 45.9954 43.9011 46.455 43.3238 46.7353C42.7517 47.0133 42.0903 47.082 41.4598 46.9298L30.0858 43.7875C29.4169 43.6028 28.7037 43.9255 28.492 44.5083C28.2801 45.091 28.6503 45.7131 29.3186 45.8976L40.7126 49.0455C40.7247 49.0487 40.7367 49.052 40.7489 49.055C41.2037 49.1677 41.6668 49.2236 42.1272 49.2236C42.9699 49.2236 43.8034 49.0364 44.5598 48.6689C45.7293 48.1008 46.5751 47.1697 46.9413 46.0468C46.9705 45.9571 46.9963 45.8675 47.0188 45.7778L56.5509 43.4757C57.9276 43.0659 59.7347 42.9181 60.5393 44.5337C61.3721 46.4303 59.2076 47.4737 58.645 47.7076Z" fill="#31C5A1"/>
<path d="M50.0834 14.5564C50.0668 14.4856 50.0427 14.4159 50.0096 14.3483C49.9779 14.2819 49.9399 14.2177 49.8929 14.158C49.8471 14.0971 49.7938 14.0407 49.7355 13.9897C49.6771 13.9388 49.6123 13.8923 49.5424 13.8525C49.474 13.8127 49.4002 13.7783 49.3242 13.7507C49.2467 13.723 49.1667 13.7009 49.0868 13.6876C48.923 13.6588 48.7541 13.6588 48.5903 13.6876C48.5091 13.7009 48.4291 13.723 48.3529 13.7507C48.2756 13.7783 48.2019 13.8127 48.1334 13.8525C48.0635 13.8923 47.9987 13.9388 47.9403 13.9897C47.882 14.0407 47.8287 14.0971 47.7829 14.158C47.7372 14.2177 47.6979 14.2819 47.6662 14.3483C47.6343 14.4159 47.609 14.4856 47.5937 14.5564C47.5773 14.6272 47.5684 14.7003 47.5684 14.7722C47.5684 14.8441 47.5773 14.9172 47.5937 14.9881C47.609 15.0589 47.6343 15.1286 47.6662 15.195C47.6979 15.2625 47.7372 15.3266 47.7829 15.3864C47.8287 15.4473 47.882 15.5037 47.9403 15.5547C47.9987 15.6056 48.0635 15.6521 48.1334 15.692C48.2019 15.7318 48.2756 15.7661 48.3529 15.7937C48.4291 15.8215 48.5091 15.8425 48.5903 15.8569C48.6716 15.8712 48.7554 15.879 48.838 15.879C48.9204 15.879 49.0042 15.8712 49.0868 15.8569C49.1667 15.8425 49.2467 15.8215 49.3242 15.7937C49.4002 15.7661 49.474 15.7318 49.5424 15.692C49.6123 15.6521 49.6771 15.6056 49.7355 15.5547C49.7938 15.5037 49.8471 15.4473 49.8929 15.3864C49.9399 15.3266 49.9779 15.2625 50.0096 15.195C50.0427 15.1286 50.0668 15.0589 50.0834 14.9881C50.0998 14.9172 50.1074 14.8441 50.1074 14.7722C50.1074 14.7003 50.0998 14.6272 50.0834 14.5564Z" fill="#31C5A1"/>
<path d="M68.2295 3.74837H60.6814C59.9802 3.74837 59.4118 4.24388 59.4118 4.85514V5.81073H55.872C55.1709 5.81073 54.6024 6.30623 54.6024 6.9175V7.23603C52.539 7.07898 51.8603 6.73788 49.9653 5.78517C48.5079 5.05248 46.305 3.94516 42.3382 2.39026C42.3197 2.38296 42.3012 2.3762 42.2823 2.36979C40.9911 1.92685 37.6069 1.05539 33.9924 2.48344L28.8839 4.07809L24.5776 0.324145C24.082 -0.108048 23.2781 -0.108048 22.7823 0.324145L8.64513 12.6488C8.18784 13.0476 8.10013 13.739 8.64513 14.2141L32.8026 35.2744C33.1892 35.6116 34.0943 35.7136 34.598 35.2744L47.5048 24.0226C47.8403 24.0479 48.1886 24.0615 48.5495 24.0615C51.8663 24.0615 54.8002 22.0779 56.4787 19.9159H68.2295C68.9307 19.9159 69.4991 19.4205 69.4991 18.8092V4.85514C69.4991 4.24388 68.9307 3.74837 68.2295 3.74837ZM23.68 2.67193L26.5735 5.19448C25.7134 5.65822 24.7189 5.90635 23.68 5.90635C22.6408 5.90635 21.6465 5.65834 20.7864 5.19448L23.68 2.67193ZM14.2318 15.9541L11.3383 13.4314L14.2318 10.9088C14.7638 11.6587 15.0483 12.5256 15.0483 13.4314C15.0483 14.3372 14.7639 15.2041 14.2318 15.9541ZM33.7004 32.9266L30.8074 30.4045C32.5738 29.4542 34.8268 29.4542 36.5934 30.4045L33.7004 32.9266ZM38.4225 28.81C35.6171 27.0359 31.7839 27.0359 28.9785 28.81L16.0609 17.5485C17.0523 16.3598 17.5874 14.9319 17.5874 13.4314C17.5874 11.9307 17.0523 10.503 16.0609 9.31433L18.9576 6.78912C20.321 7.6534 21.9586 8.12001 23.68 8.12001C25.4014 8.12001 27.039 7.6534 28.4026 6.78912L31.1485 9.18295C30.556 9.2592 29.9782 9.42943 29.4393 9.69117C28.5293 10.1332 27.8155 10.7952 27.3709 11.596C25.9387 11.8272 24.6131 12.4316 23.5731 13.3382C20.7514 15.7981 20.7514 19.8005 23.5731 22.2604C24.9839 23.4903 26.837 24.1053 28.6902 24.1053C30.5433 24.1053 32.3967 23.4903 33.8075 22.2604C34.7253 21.4602 35.3683 20.4768 35.6904 19.4049L39.9768 20.6733C39.4943 22.622 39.9885 24.6722 41.3216 26.2826L38.4225 28.81ZM30.7039 17.929C30.7151 17.9326 30.7263 17.9361 30.7375 17.9395L33.2761 18.6906C33.0845 19.4449 32.6506 20.1385 32.012 20.6952C30.1805 22.2918 27.2001 22.2921 25.3687 20.6952C23.537 19.0985 23.537 16.5003 25.3687 14.9035C25.8104 14.5181 26.3318 14.217 26.8999 14.0128C27.1343 15.713 28.5386 17.2285 30.7039 17.929ZM43.1509 24.6877C42.661 23.9915 42.3836 23.1969 42.3399 22.386C42.9479 22.7694 43.6911 23.1448 44.5788 23.4429L43.1509 24.6877ZM54.6023 18.3679C53.3991 20.0876 51.0655 21.8477 48.5495 21.8477C48.0787 21.8477 47.6375 21.8185 47.2251 21.7665C47.2235 21.7662 47.2219 21.7661 47.2202 21.7658C44.4785 21.4186 43.0037 20.0601 42.5176 19.5222C42.4916 19.4891 42.3813 19.3633 42.3651 19.3423C42.217 19.1118 41.9746 18.9267 41.6653 18.8351L31.5715 15.8485C29.9608 15.3214 29.1093 14.1189 29.4996 12.9196C29.4998 12.9189 29.5001 12.9181 29.5003 12.9173C29.5007 12.9164 29.5009 12.9154 29.5012 12.9145C29.6826 12.3623 30.0992 11.9042 30.6751 11.6245C31.2471 11.3466 31.9085 11.2776 32.5392 11.43L43.9133 14.5723C44.5819 14.7571 45.2952 14.4343 45.507 13.8515C45.7189 13.2688 45.3487 12.6468 44.6804 12.4621L35.6343 9.96301L35.5553 9.89415C35.5545 9.89349 35.5539 9.89272 35.5529 9.89206L30.8696 5.80918L34.8951 4.55256C34.9086 4.54824 34.9255 4.54282 34.9388 4.53806C34.9422 4.53685 34.9489 4.53462 34.9521 4.5334C34.9695 4.52733 34.9864 4.52091 35.0033 4.51415C37.7247 3.42376 40.3115 4.07643 41.3255 4.42018C45.1573 5.9233 47.2025 6.95137 48.6967 7.70253C50.7743 8.74699 51.7753 9.25024 54.6023 9.45377V18.3679ZM59.4118 17.7022H57.1415V8.02427H59.4118V17.7022ZM66.9601 17.7022H61.9508V5.96191H66.9601V17.7022Z" fill="#31C5A1"/>
</g>
<defs>
<filter id="filter0_d_349_2654" x="0.5" y="0" width="72.999" height="64.6621" filterUnits="userSpaceOnUse" color-interpolation-filters="sRGB">
<feFlood flood-opacity="0" result="BackgroundImageFix"/>
<feColorMatrix in="SourceAlpha" type="matrix" values="0 0 0 0 0 0 0 0 0 0 0 0 0 0 0 0 0 0 127 0" result="hardAlpha"/>
<feOffset dy="4"/>
<feGaussianBlur stdDeviation="2"/>
<feColorMatrix type="matrix" values="0 0 0 0 0 0 0 0 0 0 0 0 0 0 0 0 0 0 0.25 0"/>
<feBlend mode="normal" in2="BackgroundImageFix" result="effect1_dropShadow_349_2654"/>
<feBlend mode="normal" in="SourceGraphic" in2="effect1_dropShadow_349_2654" result="shape"/>
</filter>
</defs>
</svg>
